HIERARCHY
ROOT hip
{
  OFFSET 0.0 0.0 0.0
  CHANNELS 6 Xposition Yposition Zposition Zrotation Yrotation Xrotation
  JOINT torso
  {
    OFFSET 0.0 0.0 0.0
    CHANNELS 3 Zrotation Xrotation Yrotation
    JOINT neck
    {
      OFFSET -20.11218299999996 327.95800799999995 66.30578600000035
      CHANNELS 3 Zrotation Xrotation Yrotation
      JOINT head
      {
        OFFSET 18.28939800000012 288.83178699999996 217.81652800000006
        CHANNELS 3 Zrotation Xrotation Yrotation
        End Site
        {
          OFFSET 0.0 0.0 0.0
        }
      }
    }
    JOINT left_collar
    {
      OFFSET -20.11218299999996 327.95800799999995 66.30578600000035
      CHANNELS 3 Zrotation Xrotation Yrotation
      JOINT left_upper_arm
      {
        OFFSET -127.08163400000001 -16.17407199999991 15.44799799999987
        CHANNELS 3 Zrotation Xrotation Yrotation
        JOINT left_forearm
        {
          OFFSET -234.267792 45.78796399999999 109.31286600000021
          CHANNELS 3 Zrotation Xrotation Yrotation
          JOINT left_hand
          {
            OFFSET -259.114014 -33.25433399999997 16.18847699999992
            CHANNELS 3 Zrotation Xrotation Yrotation
            End Site
            {
              OFFSET 0.0 0.0 0.0
            }
          }
        }
      }
    }
    JOINT right_collar
    {
      OFFSET -20.11218299999996 327.95800799999995 66.30578600000035
      CHANNELS 3 Zrotation Xrotation Yrotation
      JOINT right_upper_arm
      {
        OFFSET 164.513184 1.5733030000000099 4.892333999999892
        CHANNELS 3 Zrotation Xrotation Yrotation
        JOINT right_forearm
        {
          OFFSET 260.742027 48.718444999999974 144.35229500000014
          CHANNELS 3 Zrotation Xrotation Yrotation
          JOINT right_hand
          {
            OFFSET 287.85150899999996 -44.57171600000015 13.96813899999961
            CHANNELS 3 Zrotation Xrotation Yrotation
            End Site
            {
              OFFSET 0.0 0.0 0.0
            }
          }
        }
      }
    }
  }
}
MOTION
Frames: 11
Frame Time: 0.01
-601.2310445371287 231.8455085094956 420.9782725922856 21.28195691807091 -10.00947865620405 9.450805903254993 1.0503079822771237 -1.4876025389686978 -0.3165700656815473 -7.256133913331044 -12.939493130898134 6.581907087232544 0.0 0.0 0.0 2.6184643442604654 0.218643938254257 0.667371854119414 7.0033129861380665 -0.9820738808880338 -30.138776146753276 -48.62104732764205 -11.34673153702786 -26.258879353711613 0.0 0.0 0.0 -3.33747896564015 0.18526889310688394 4.383736613940672 -23.54044037049627 17.174261597466515 43.11202235253882 17.902753212452744 -0.9636941746932811 35.01835995619549 0.0 100.0 0.0
-600.3213317794358 232.00782337316718 421.67394764150293 21.404232985579903 -10.059291954181703 9.092541410806088 1.0456527835914269 -1.5546273700710413 -0.3202448689615246 -7.221703409571655 -12.733421160900622 6.538123151596048 0.0 0.0 0.0 2.6849347369911754 0.21198097796587614 0.7625171203727887 6.631478590839687 -1.4539362357084928 -31.064715861308795 -46.252893699201906 -10.35381904785173 -25.501700703518456 0.0 0.0 0.0 -3.3271832628635103 0.18060207245182983 4.181111575173689 -23.39040726107665 17.090320817334856 43.72728984022814 18.02692824231378 -1.009425032634811 35.017075233700574 0.0 100.0 0.0
-599.4342915983136 232.16489121474692 422.35720538551084 21.510976246461745 -10.105267410424814 8.724533200945716 1.0529652654647803 -1.6187085175542533 -0.32629328121436024 -7.191155832724133 -12.529696051151872 6.49765873137663 0.0 0.0 0.0 2.762950377079318 0.20303543488780468 0.880668598747719 6.287545792219685 -1.9140538192308163 -31.987202195115128 -43.92097562437288 -9.396165504987419 -24.673397676619437 0.0 0.0 0.0 -3.316188307904774 0.17621509257776335 3.993252843054431 -23.244228149604343 17.006280569943907 44.328835011170234 18.146484523993227 -1.053534305997479 35.03014445772989 0.0 100.0 0.0
-598.5727678956722 232.31412194688716 423.0237675420394 21.60291554550295 -10.147880187237059 8.348734267921555 1.0718409127379878 -1.6790505251838188 -0.33459099429248 -7.164891244429329 -12.329452042852726 6.4609164326226285 0.0 0.0 0.0 2.852604796214356 0.19203854151753116 1.0198416372782586 5.9767790600699575 -2.35554500742368 -32.89994655194663 -41.64514714926727 -8.48844916214654 -23.79834806515393 0.0 0.0 0.0 -3.3050349661775407 0.17215594902330672 3.820927762708623 -23.10324771553799 16.923096804370886 44.911122762012354 18.260062942769554 -1.0955833213682047 35.05946711181437 0.0 100.0 0.0
-597.7394366179685 232.45289297821498 423.6698619140576 21.68112590284492 -10.187685433381002 7.9676094454279465 1.1015563080029673 -1.7350395191181207 -0.3449540193913164 -7.1431675813128725 -12.13380638644604 6.428182897140356 0.0 0.0 0.0 2.9537184366668385 0.1792757651525127 1.177450884865394 5.704143630296152 -2.7713113467468946 -33.796800836192354 -39.443706296058636 -7.64196397688565 -22.902144771591452 0.0 0.0 0.0 -3.2942842123261293 0.1684638259391807 3.6645801236730993 -22.968850847845776 16.84185181677437 45.468526029216115 18.366280481210552 -1.1351251014427013 35.10677541485655 0.0 100.0 0.0
-596.9368037847578 232.5786333220231 424.29224240569175 21.74696237999942 -10.225262319323765 7.584053857281085 1.1411172888218792 -1.7862697068273976 -0.35714999405585013 -7.126093856315458 -11.943874881432407 6.399625199346498 0.0 0.0 0.0 3.0658394694719044 0.16507514515290145 1.3504303989759256 5.474188959747452 -3.1542289005301365 -34.67190088467009 -37.333242550629706 -6.864543882448871 -22.01052203153125 0.0 0.0 0.0 -3.284485796612591 0.16516899523328638 3.5243829157312248 -22.842437650047593 16.763736722661758 45.995438450471624 18.463744856105805 -1.1717048615789931 35.173578680113444 0.0 100.0 0.0
-596.1672101219038 232.68890797628583 424.888192230765 21.80198568828129 -10.261162441240996 7.201294320089348 1.1893157147371543 -1.832557771943887 -0.37091116564376647 -7.113629295746936 -11.760783868885987 6.375291725292368 0.0 0.0 0.0 3.1882538556951037 0.14979486877909923 1.5353691550579414 5.290950147863925 -3.4973479546492046 -35.51979422827384 -35.32841977636164 -6.160731197201655 -21.14847692171343 0.0 0.0 0.0 -3.276147434094204 0.16229303106340726 3.4002938938431817 -22.72539693838785 16.690027686884253 46.48639757737769 18.551071917412806 -1.2048609900831184 35.26110862580294 0.0 100.0 0.0
-595.4328393238173 232.78149834064027 425.4555132120723 21.847884598389196 -10.295866325252375 6.822779961706649 1.2447904421605154 -1.8739451010788921 -0.38594805005352656 -7.105588185283363 -11.585676166365788 6.355117107987271 0.0 0.0 0.0 3.3200040227383587 0.1338105567484572 1.7286535568222732 5.157869899402275 -3.794091399578885 -36.33554792317643 -33.441720548643175 -5.532127768152072 -20.339609788436515 0.0 0.0 0.0 -3.2697068794566877 0.15984922873839735 3.292107743374383 -22.619078848403415 16.622056132569497 46.93621538248805 18.626906626701427 -1.2341271217063374 35.37026757188487 0.0 100.0 0.0
-594.7357271487107 232.8544749192003 425.99250405786853 21.886400005998112 -10.329750950550327 6.452068229916945 1.3060881748573328 -1.9106883119966067 -0.40196273054604065 -7.101650002415332 -11.419709192214185 6.33893069707321 0.0 0.0 0.0 3.459915349329758 0.11750267951573763 1.9266088612040808 5.077742091439563 -4.03844243250007 -37.11483450198233 -31.68318116983843 -4.977862235040042 -19.60568062824515 0.0 0.0 0.0 -3.2655089440760894 0.1578431307522446 3.199499878417384 -22.524767241546165 16.561173616006467 47.34011181314289 18.689947970165527 -1.2590358266440735 35.501581672246935 0.0 100.0 0.0
-594.0777689930516 232.90625929410112 426.49793023832035 21.919255000350088 -10.363070143275152 6.092711772741372 1.371720264359225 -1.9432389679268818 -0.4186608234765245 -7.101374295921508 -11.264044459279486 6.326468024520413 0.0 0.0 0.0 3.6066295759233977 0.10124447861615503 2.1256323842478886 5.05267669083298 -4.225113216153836 -37.853996191088314 -30.060144060723776 -4.495110136868075 -18.966357859775115 0.0 0.0 0.0 -3.263789017588785 0.1562730881085131 3.122058722065017 -22.443652644261636 16.50871254673311 47.69384632145442 18.738977600045928 -1.2791242982658977 35.655161471581906 0.0 100.0 0.0
-593.4607241132495 232.93567313956945 426.97098772688196 21.94809454783752 -10.395948574844494 5.748150787149096 1.4402122036109477 -1.9722137136394648 -0.4357612873397639 -7.1042196715754615 -11.119828542657617 6.317384726858086 0.0 0.0 0.0 3.7586441354529736 0.0853907499250474 2.3223125454127773 5.084084824387265 -4.349687500703559 -38.55008910929574 -28.57704850460403 -4.079612600801035 -18.43912204945662 0.0 0.0 0.0 -3.26466407127418 0.15513081222788794 3.0593051724290494 -22.3768064557577 16.46594440325969 47.99384177155326 18.772891436066935 -1.293942253320619 35.83067211688432 0.0 100.0 0.0
